<?xml version="1.0" encoding="iso-8859-1"?>
<!-- Generator: Adobe Illustrator 18.0.0, SVG Export Plug-In . SVG Version: 6.00 Build 0)  -->
<!DOCTYPE svg PUBLIC "-//W3C//DTD SVG 1.1//EN" "http://www.w3.org/Graphics/SVG/1.1/DTD/svg11.dtd">
<svg version="1.1" id="Capa_1" xmlns="http://www.w3.org/2000/svg" xmlns:xlink="http://www.w3.org/1999/xlink" x="0px" y="0px"
	 viewBox="0 0 382.273 382.273" style="enable-background:new 0 0 382.273 382.273;" xml:space="preserve">
<g>
	<path d="M60.015,15.691v-4.547c-8.392,0-15.219,6.831-15.219,15.228s6.827,15.229,15.219,15.229v-4.547
		c-5.884,0-10.672-4.792-10.672-10.682C49.343,20.483,54.13,15.691,60.015,15.691z"/>
	<path d="M59.121,52.748v-4.547c-12.035,0-21.826-9.792-21.826-21.828c0-12.035,9.792-21.826,21.826-21.826V0
		C44.579,0,32.748,11.831,32.748,26.373C32.748,40.916,44.579,52.748,59.121,52.748z"/>
	<path d="M101.249,26.373c0-8.397-6.828-15.228-15.221-15.228v4.547c5.885,0,10.674,4.792,10.674,10.682
		c0,5.89-4.788,10.682-10.674,10.682v4.547C94.421,41.602,101.249,34.771,101.249,26.373z"/>
	<path d="M108.75,26.373c0,12.036-9.792,21.828-21.828,21.828v4.547c14.543,0,26.375-11.832,26.375-26.375
		C113.297,11.831,101.465,0,86.922,0v4.547C98.958,4.547,108.75,14.338,108.75,26.373z"/>
	<path d="M350.404,244.968l11.911-71.263h12.72v-17.734h-205.08v17.734h12.718l11.911,71.263h19.011v45.225H101.368V135.758
		l-6.066-1.535v-15.344l0.272-0.504l-0.272-0.146V81.243l0.265-0.143l-0.265-0.494V59.751l-19.098,4.831V32.574
		c2.249-1.157,3.79-3.496,3.79-6.201c0-3.851-3.121-6.973-6.974-6.973c-3.85,0-6.973,3.122-6.973,6.973
		c0,2.705,1.541,5.043,3.79,6.2v33.62l-19.097,4.831v51.925l-6.064-1.534v168.777h-32.76v72.68h-4.68v19.401h355.898v-19.401
		h-14.283v-72.68h-17.458v-45.225H350.404z M57.108,75.981l31.828-8.053v9.682L57.108,94.685V75.981z M88.936,84.658v30.137
		l-28.011-15.11L88.936,84.658z M57.108,104.683l31.828,17.169v10.761l-31.828-8.053V104.683z M51.044,129.593l43.957,11.121v26.562
		l-43.957-23.713V129.593z M51.044,150.62l39.374,21.239L51.044,192.98V150.62z M95.001,176.448v42.362l-39.375-21.24
		L95.001,176.448z M51.044,202.155l39.374,21.239l-39.374,21.124V202.155z M95.001,227.984v42.361l-39.374-21.238L95.001,227.984z
		 M51.044,253.693l39.374,21.236l-28.449,15.263H51.044V253.693z M95.001,279.52v10.673H75.107L95.001,279.52z M98.976,324.068
		H35.022v-13.339h63.954V324.068z M189.92,324.068h-63.953v-13.339h63.953V324.068z M209.744,213.721v-26.373h55.477v26.373H209.744
		z M216.911,310.729h63.954v13.339h-63.954V310.729z M314.025,362.872h-76.544v-18.797h76.544V362.872z M279.771,213.721v-26.373
		h55.478v26.373H279.771z"/>
</g>
<g>
</g>
<g>
</g>
<g>
</g>
<g>
</g>
<g>
</g>
<g>
</g>
<g>
</g>
<g>
</g>
<g>
</g>
<g>
</g>
<g>
</g>
<g>
</g>
<g>
</g>
<g>
</g>
<g>
</g>
</svg>
